<?xml version="1.0" standalone="no"?>
<!DOCTYPE svg PUBLIC "-//W3C//DTD SVG 20010904//EN"
 "http://www.w3.org/TR/2001/REC-SVG-20010904/DTD/svg10.dtd">
<svg version="1.0" xmlns="http://www.w3.org/2000/svg"
 width="1049.000000pt" height="453.000000pt" viewBox="0 0 1049.000000 453.000000"
 preserveAspectRatio="xMidYMid meet">
<metadata>
Created by potrace 1.16, written by Peter Selinger 2001-2019
</metadata>
<g transform="translate(0.000000,453.000000) scale(0.100000,-0.100000)"
fill="#000000" stroke="none">
<path d="M671 4049 c-226 -38 -426 -220 -498 -454 -17 -57 -18 -126 -18 -1370
0 -1244 1 -1313 18 -1370 66 -212 230 -376 442 -442 57 -17 150 -18 2195 -18
2045 0 2138 1 2195 18 210 65 371 224 441 437 17 51 19 110 22 748 l3 692 164
0 165 0 0 -27 0 -27 35 34 35 34 0 -770 c0 -513 4 -790 11 -829 29 -158 146
-275 304 -304 81 -15 1459 -15 1540 0 158 29 275 146 304 304 15 82 15 2958 0
3040 -29 158 -146 275 -304 304 -81 15 -1459 15 -1540 0 -158 -29 -275 -146
-304 -304 -7 -38 -11 -285 -11 -719 l0 -660 -35 34 -35 34 0 -27 0 -27 -164 0
-165 0 -3 583 c-3 529 -5 587 -22 637 -69 210 -224 365 -436 437 -53 17 -142
18 -2170 19 -1215 1 -2138 -2 -2169 -7z m4291 -50 c97 -20 214 -84 288 -159
75 -74 139 -191 159 -288 15 -74 15 -2580 0 -2654 -20 -97 -84 -214 -159 -288
-74 -75 -191 -139 -288 -159 -75 -15 -4229 -15 -4304 0 -97 20 -214 84 -288
159 -75 74 -139 191 -159 288 -15 74 -15 2580 0 2654 43 208 223 393 431 444
71 17 4237 20 4320 3z m2815 -10 c79 -30 162 -113 192 -192 l21 -58 0 -1514 0
-1514 -21 -58 c-30 -79 -113 -162 -192 -192 -57 -21 -66 -21 -822 -21 -756 0
-765 0 -822 21 -79 30 -162 113 -192 192 l-21 58 0 1514 0 1514 22 58 c29 79
104 156 183 188 l60 25 767 0 c759 0 768 0 825 -21z"/>
<path d="M671 3533 c-21 -18 -21 -21 -19 -363 l3 -345 220 -5 220 -5 -260 -5
c-152 -3 11 -6 390 -6 379 0 542 3 390 6 l-260 5 220 5 220 5 3 345 c2 342 2
345 -19 363 -20 16 -61 17 -554 17 -493 0 -534 -1 -554 -17z m527 -59 c293 -5
362 -4 362 7 0 8 3 9 9 3 6 -5 47 -7 94 -4 l84 5 6 -293 c4 -162 5 -298 1
-303 -3 -5 -225 -9 -530 -9 l-524 0 0 306 0 306 68 -6 c37 -3 230 -9 430 -12z"/>
<path d="M3864 3463 c-28 -13 -32 -22 -38 -67 -3 -28 -6 -75 -6 -105 l0 -54
58 55 c74 71 105 86 191 94 54 5 81 3 115 -10 50 -19 81 -49 70 -67 -4 -8 -3
-10 4 -5 19 12 14 -6 -10 -31 -21 -23 -21 -24 -4 -60 13 -28 20 -33 26 -23 5
8 7 17 4 21 -4 7 37 21 44 14 2 -2 -6 -21 -18 -42 l-22 -38 26 30 c14 17 26
25 26 18 0 -6 -4 -15 -10 -18 -20 -12 -10 -35 15 -35 33 0 32 -14 -6 -62 -33
-41 -53 -46 -25 -6 9 12 16 28 16 34 0 16 -32 27 -40 14 -7 -12 -35 38 -42 74
-1 11 -10 21 -18 23 -13 4 -13 3 0 -6 13 -10 11 -15 -12 -35 -21 -19 -24 -25
-13 -30 8 -3 23 -3 33 1 9 3 14 2 9 -2 -4 -5 1 -17 10 -28 12 -13 14 -21 7
-24 -6 -2 -9 -14 -7 -27 4 -19 -1 -25 -22 -30 -32 -8 -55 7 -48 33 3 12 -7 26
-31 44 -19 15 -38 27 -43 27 -9 0 -53 65 -53 78 0 5 -16 30 -35 55 -44 57 -44
65 -2 33 29 -22 36 -24 51 -13 17 13 17 15 2 45 -18 34 -24 34 -83 -1 -39 -23
-42 -45 -13 -117 11 -28 20 -57 20 -65 0 -25 -26 -16 -37 13 -10 24 -10 22 -6
-19 4 -34 1 -49 -12 -62 -15 -16 -14 -17 19 -17 19 0 38 -4 41 -10 3 -6 -4
-10 -17 -10 -13 0 -52 -15 -88 -33 l-65 -34 -3 -51 c-2 -38 1 -52 10 -52 32 0
117 50 139 81 26 39 40 50 51 43 13 -8 -29 -80 -64 -109 l-33 -28 33 7 c25 6
32 4 32 -8 0 -10 -9 -16 -22 -17 -29 0 -131 -50 -136 -66 -1 -6 12 -14 29 -18
27 -6 36 -3 51 15 9 12 21 19 26 16 5 -3 14 6 21 20 6 14 15 23 20 20 11 -7 2
-97 -12 -114 -12 -16 -59 -8 -104 18 -36 21 -43 18 -43 -22 l0 -28 498 0 c274
0 501 3 505 6 3 4 -1 21 -10 38 l-16 31 22 -19 c11 -11 21 -27 21 -38 0 -13 8
-18 30 -18 29 0 30 1 30 48 0 42 -4 51 -25 62 -20 11 -25 21 -25 53 0 37 2 39
25 35 l25 -5 0 115 c0 90 -3 113 -12 104 -20 -20 -43 -14 -74 20 -16 17 -24
28 -17 24 6 -3 32 -10 57 -15 l46 -8 0 176 c0 174 0 177 -22 178 -23 2 -73
-32 -74 -50 0 -7 -6 -29 -13 -49 -7 -21 -10 -42 -7 -47 11 -16 -12 -22 -33 -9
-18 11 -24 10 -42 -9 l-22 -22 34 -9 c33 -10 33 -10 -16 -10 -27 0 -72 3 -100
8 l-50 7 61 2 c53 1 62 4 67 22 3 12 0 22 -8 25 -11 5 -11 11 -3 30 11 24 34
32 40 14 2 -5 30 14 63 44 l60 54 -166 1 c-151 1 -167 0 -173 -16 -7 -17 -8
-17 -17 0 -8 14 -25 17 -109 17 -55 0 -100 -2 -100 -5 0 -3 11 -17 25 -31 30
-30 75 -116 75 -141 -1 -11 -8 -4 -19 18 -27 53 -71 106 -113 134 -36 24 -44
25 -190 24 -118 0 -160 -4 -184 -16z"/>
<path d="M2963 1963 c-7 -3 -13 -16 -13 -29 0 -17 -6 -24 -19 -24 -11 0 -23
-4 -26 -10 -3 -5 1 -10 9 -10 9 0 16 -7 16 -15 0 -20 -6 -19 -29 6 -11 12 -17
28 -14 35 4 12 0 12 -22 4 -14 -5 -36 -15 -48 -22 -29 -15 -75 -20 -82 -8 -7
11 -116 -35 -132 -57 -6 -8 -16 -12 -21 -9 -10 6 -116 -37 -139 -56 -17 -13
-5 -38 15 -31 13 4 14 2 4 -4 -10 -8 -6 -21 19 -62 31 -49 53 -66 29 -21 -21
40 -2 32 25 -10 33 -53 40 -70 26 -70 -6 0 -13 11 -17 25 -3 14 -10 25 -15 25
-14 0 -11 -9 21 -55 17 -24 30 -46 30 -48 0 -13 -33 2 -42 18 -8 13 -7 16 1
11 7 -5 9 -1 5 9 -9 22 -26 4 -27 -29 -1 -15 -9 -29 -19 -32 -10 -3 -18 -9
-18 -14 0 -5 -14 -17 -31 -25 -29 -16 -31 -15 -36 4 -3 12 -9 21 -13 21 -5 0
-16 3 -26 7 -12 4 -4 -12 22 -50 25 -36 46 -56 59 -57 29 0 145 57 145 72 0 7
-9 19 -20 26 -11 7 -20 17 -20 24 0 6 3 8 7 5 3 -4 12 -2 20 5 7 6 16 8 20 4
3 -3 1 -6 -5 -6 -6 0 -9 -7 -6 -15 4 -8 11 -15 16 -15 9 0 80 30 240 104 31
14 62 26 69 26 8 0 8 4 -1 15 -22 26 3 39 26 14 14 -16 15 -23 7 -26 -7 -3
-13 -9 -13 -14 0 -5 11 -3 25 3 17 7 24 17 20 26 -8 21 16 34 30 16 9 -13 20
-11 78 16 37 16 67 34 67 38 0 7 -126 194 -165 244 -11 14 -26 24 -32 21z"/>
<path d="M1240 1915 c0 -12 -13 -15 -60 -15 -59 0 -79 -13 -40 -25 34 -11 15
-43 -22 -37 -9 2 -19 -6 -23 -18 -3 -11 -10 -20 -14 -20 -11 0 -37 31 -45 54
-5 15 -13 17 -41 13 -33 -5 -35 -4 -29 19 3 13 4 24 1 24 -14 0 -76 -48 -70
-54 4 -3 17 1 29 9 27 17 34 6 26 -43 -4 -28 -1 -34 17 -39 29 -7 27 -23 -3
-23 -14 0 -28 -4 -31 -10 -3 -5 -1 -10 5 -10 6 0 10 -15 8 -35 -1 -24 -7 -35
-18 -35 -27 1 -62 35 -63 63 -1 18 -6 25 -15 22 -8 -3 -16 -5 -18 -5 -3 0 9
-20 26 -45 24 -35 30 -54 29 -87 -1 -24 -7 -49 -12 -55 -11 -15 -1 -47 12 -39
5 4 12 0 15 -6 3 -9 8 -8 16 5 12 19 32 14 24 -6 -2 -7 4 -28 14 -48 13 -26
23 -34 33 -29 16 10 69 1 69 -10 0 -5 -9 -12 -21 -15 -13 -5 -18 -12 -14 -22
4 -12 2 -13 -7 -6 -26 21 -46 11 -44 -21 1 -25 -3 -32 -22 -34 -13 -2 -25 3
-28 13 -5 13 -8 14 -15 3 -9 -15 36 -68 59 -68 12 0 12 3 2 15 -12 15 0 22 14
8 4 -4 19 -7 33 -8 14 0 28 -7 31 -15 5 -13 3 -13 -11 -1 -10 7 -17 9 -17 4 0
-17 24 -33 49 -33 13 0 33 -7 42 -16 15 -13 24 -15 46 -6 16 6 46 16 68 21 22
6 68 29 102 51 34 22 69 40 77 40 8 0 18 5 21 10 3 6 16 10 28 11 12 0 16 3 9
6 -7 3 -27 -1 -43 -7 -24 -10 -32 -10 -42 0 -9 10 -9 11 0 6 6 -3 14 -2 17 3
12 19 -25 19 -88 0 -55 -17 -66 -24 -66 -42 0 -12 -5 -29 -10 -37 -7 -11 -10
-5 -10 23 0 26 -4 37 -15 37 -9 0 -18 -7 -22 -16 -4 -12 -8 -12 -13 -4 -6 9
-13 5 -25 -14 -18 -28 -31 -31 -54 -17 -12 8 -11 13 9 29 23 19 24 23 12 54
-6 19 -12 41 -12 49 0 18 67 24 87 8 22 -19 28 -2 27 79 -3 132 -3 138 -13
122 -6 -8 -7 -18 -4 -22 9 -15 -19 -38 -46 -38 -15 0 -21 -3 -14 -8 8 -5 4
-16 -12 -36 l-24 -30 -5 25 c-4 13 -5 37 -4 53 2 23 -1 29 -19 32 -13 2 -22 1
-22 -4 1 -4 1 -9 -1 -12 -12 -31 -8 -49 13 -53 21 -4 21 -5 2 -11 -11 -4 -31
-23 -44 -42 -13 -19 -27 -34 -31 -34 -4 0 -15 19 -24 43 -9 24 -25 53 -36 65
-11 12 -20 22 -20 24 0 2 16 3 35 3 30 0 35 -3 35 -22 0 -13 5 -23 11 -23 5 0
7 5 4 10 -3 6 0 13 8 16 8 3 18 22 22 41 5 28 3 38 -10 45 -13 8 -14 13 -4 24
9 11 8 14 -4 14 -10 0 -13 6 -10 20 3 11 12 20 19 20 19 0 18 16 -2 24 -9 4
-14 13 -10 21 4 11 -3 19 -21 26 -14 5 -23 12 -20 15 10 11 64 -25 91 -60 21
-28 27 -47 28 -87 l0 -52 24 27 c25 26 58 34 69 16 3 -5 11 -10 16 -10 5 0 -5
26 -22 58 -35 64 -49 82 -49 65 0 -7 5 -15 10 -18 6 -3 10 -14 10 -23 -1 -15
-2 -15 -11 1 -6 10 -20 22 -32 27 -22 8 -21 8 5 18 14 6 29 15 32 21 4 6 13 8
21 4 10 -3 15 1 15 16 0 13 14 30 40 46 22 14 40 32 40 40 0 8 -2 15 -5 15 -3
0 -5 -7 -5 -15z"/>
<path d="M1335 1778 c26 -81 17 -108 -37 -108 -22 0 -29 7 -44 45 -20 55 -30
62 -44 35 -16 -29 12 -75 59 -99 21 -11 41 -30 44 -42 5 -20 10 -21 56 -16 34
4 51 2 54 -6 2 -7 7 -10 10 -7 3 3 -5 19 -18 35 -20 25 -26 27 -34 15 -6 -8
-13 -11 -17 -7 -6 6 33 46 47 47 3 0 11 -12 18 -26 10 -23 16 -26 56 -22 24 3
49 0 55 -6 24 -24 7 12 -21 42 -23 26 -40 34 -78 39 -47 5 -48 7 -65 54 -11
29 -24 49 -33 49 -11 0 -13 -6 -8 -22z"/>
<path d="M2348 1692 c-43 -19 -78 -39 -78 -43 0 -4 16 -34 35 -66 23 -38 35
-51 35 -38 0 11 7 31 16 44 17 23 16 23 -15 16 -20 -4 -31 -3 -31 4 0 6 10 11
23 11 13 0 29 6 36 13 11 10 13 9 8 -6 -6 -15 -2 -16 21 -10 33 8 62 7 73 -4
4 -4 -11 -7 -34 -5 -34 3 -46 -1 -66 -22 -31 -33 -22 -70 22 -92 17 -9 35 -21
39 -27 9 -15 78 56 78 81 0 11 5 22 11 24 7 2 -3 26 -26 61 -21 31 -42 54 -48
50 -6 -4 -8 0 -4 10 13 34 -18 34 -95 -1z"/>
<path d="M4335 1668 c-3 -18 -5 -60 -3 -93 l3 -60 35 -3 c21 -2 38 2 45 10 5
8 18 17 28 21 23 9 22 27 -3 27 -25 0 -25 5 0 32 11 12 17 24 14 27 -3 3 -9
-1 -14 -9 -7 -11 -11 -11 -24 -1 -15 12 -15 15 1 26 14 10 14 14 2 27 -7 8
-21 13 -31 10 -10 -2 -25 1 -32 8 -12 9 -16 6 -21 -22z"/>
<path d="M1596 1635 c4 -9 -2 -32 -12 -51 -20 -36 -34 -44 -34 -19 0 20 -11
19 -98 -5 -78 -22 -122 -25 -122 -11 0 5 -9 13 -20 16 -11 3 -20 13 -20 20 0
21 -18 28 -34 13 -16 -17 -32 -128 -17 -128 5 0 13 5 16 10 3 6 18 10 33 10
20 0 23 -3 13 -9 -10 -6 1 -9 30 -8 24 1 48 7 52 12 5 6 6 1 2 -11 -9 -33 14
-45 60 -33 39 11 54 3 55 -30 0 -11 4 -11 18 2 10 10 25 17 34 17 18 0 54 38
63 68 4 16 3 22 -7 20 -7 -2 -14 8 -16 21 -3 18 0 22 12 18 9 -4 16 -2 16 3 0
6 -5 10 -10 10 -7 0 -8 13 -5 34 4 20 2 36 -4 40 -7 5 -8 1 -5 -9z"/>
<path d="M6802 3290 c-364 -51 -666 -306 -775 -655 -138 -440 61 -917 469
-1127 267 -137 559 -140 830 -8 549 267 702 963 319 1447 -161 205 -418 335
-685 347 -52 3 -123 1 -158 -4z"/>
<path d="M8948 4046 c-101 -27 -176 -106 -197 -207 -7 -33 -11 -288 -11 -731
l0 -682 -30 29 c-29 28 -30 28 -30 7 l0 -22 -310 0 -310 0 0 -45 0 -45 310 0
310 0 0 -22 c0 -21 1 -21 30 7 l29 28 3 -879 c3 -868 3 -880 24 -924 31 -67
68 -106 132 -137 l57 -28 565 0 565 0 57 28 c64 31 101 70 132 137 l21 45 0
1620 0 1620 -21 45 c-31 67 -68 106 -132 137 l-57 28 -545 2 c-418 2 -556 -1
-592 -11z m1167 -55 c22 -10 54 -34 72 -52 68 -72 63 59 63 -1714 0 -1773 5
-1642 -63 -1714 -69 -73 -47 -71 -667 -71 -620 0 -598 -2 -667 71 -68 72 -63
-59 -63 1714 0 1773 -5 1642 63 1714 69 73 47 71 667 71 520 0 558 -2 595 -19z"/>
<path d="M8942 2776 c1 -15 7 -22 15 -19 7 3 13 0 13 -6 0 -6 -7 -11 -15 -11
-13 0 -15 -24 -15 -156 0 -151 -1 -156 -20 -151 -16 4 -20 0 -20 -20 0 -20 4
-23 20 -18 20 6 20 2 20 -234 l0 -241 565 0 565 0 0 440 0 440 -565 0 -565 0
2 -24z"/>
</g>
</svg>
